HIERARCHY
ROOT joint_0
{
	OFFSET 0.000000 0.000000 0.000000
	CHANNELS 6 Xposition Yposition Zposition Zrotation Yrotation Xrotation 
	JOINT joint_1
	{
		OFFSET 0.000000 0.000000 0.000000
		CHANNELS 3 Zrotation Yrotation Xrotation
		JOINT joint_2
		{
			OFFSET 3.811170 -8.520760 0.839290
			CHANNELS 3 Zrotation Yrotation Xrotation
			JOINT joint_3
			{
				OFFSET 2.562200 -7.039590 0.000000
				CHANNELS 3 Zrotation Yrotation Xrotation
				JOINT joint_4
				{
					OFFSET 0.157640 -0.433110 2.322550
					CHANNELS 3 Zrotation Yrotation Xrotation
					End Site
					{
						OFFSET 0.000000 0.000000 0.000000
					}
				}
			}
		}
	}
	JOINT joint_5
	{
		OFFSET 0.000000 0.000000 0.000000
		CHANNELS 3 Zrotation Yrotation Xrotation
		JOINT joint_6
		{
			OFFSET -3.848050 -8.780180 0.839290
			CHANNELS 3 Zrotation Yrotation Xrotation
			JOINT joint_7
			{
				OFFSET -2.568260 -7.056230 0.000000
				CHANNELS 3 Zrotation Yrotation Xrotation
				JOINT joint_8
				{
					OFFSET -0.164730 -0.452590 2.363150
					CHANNELS 3 Zrotation Yrotation Xrotation
					End Site
					{
						OFFSET 0.000000 0.000000 0.000000
					}
				}
			}
		}
	}
	JOINT joint_9
	{
		OFFSET 0.028270 2.035590 -0.193380
		CHANNELS 3 Zrotation Yrotation Xrotation
		JOINT joint_10
		{
			OFFSET 0.056720 2.048850 -0.042750
			CHANNELS 3 Zrotation Yrotation Xrotation
			JOINT joint_11
			{
				OFFSET -0.054170 1.746240 0.172020
				CHANNELS 3 Zrotation Yrotation Xrotation
				JOINT joint_12
				{
					OFFSET 0.104070 1.761360 -0.123970
					CHANNELS 3 Zrotation Yrotation Xrotation
					End Site
					{
						OFFSET 0.000000 0.000000 0.000000
					}
				}
			}
			JOINT joint_13
			{
				OFFSET 3.362410 1.200890 -0.311210
				CHANNELS 3 Zrotation Yrotation Xrotation
				JOINT joint_14
				{
					OFFSET 4.983000 -0.000000 -0.000000
					CHANNELS 3 Zrotation Yrotation Xrotation
					JOINT joint_15
					{
						OFFSET 3.483560 -0.000000 -0.000000
						CHANNELS 3 Zrotation Yrotation Xrotation
						JOINT joint_16
						{
							OFFSET 0.715260 -0.000000 -0.000000
							CHANNELS 3 Zrotation Yrotation Xrotation
							End Site
							{
								OFFSET 0.000000 0.000000 0.000000
							}
						}
					}
				}
			}
			JOINT joint_17
			{
				OFFSET -3.136600 1.374050 -0.404650
				CHANNELS 3 Zrotation Yrotation Xrotation
				JOINT joint_18
				{
					OFFSET -5.241900 -0.000000 -0.000000
					CHANNELS 3 Zrotation Yrotation Xrotation
					JOINT joint_19
					{
						OFFSET -3.444170 -0.000000 -0.000000
						CHANNELS 3 Zrotation Yrotation Xrotation
						JOINT joint_20
						{
							OFFSET -0.622530 -0.000000 -0.000000
							CHANNELS 3 Zrotation Yrotation Xrotation
							End Site
							{
								OFFSET 0.000000 0.000000 0.000000
							}
						}
					}
				}
			}
		}
	}
}
MOTION
Frames: 18
Frame Time: 0.031667
4.847296 15.567984 -2.364512 -5.013435 -25.555210 3.808602 -7.096617 23.137871 -30.289406 -7.767271 16.437811 22.481337 -0.948540 6.116627 -14.355696 0.000000 0.000000 0.000000 -4.224747 -13.831265 6.162114 30.394140 -16.663160 27.421116 0.809849 -0.915471 -9.916310 0.000000 0.000000 0.000000 0.474914 1.885277 -3.557187 -1.821743 -0.789654 -9.773897 0.000000 0.000000 0.000000 0.000000 0.000000 0.000000 -38.969296 -34.418652 6.843794 72.087296 -64.297882 0.000000 0.000000 0.000000 0.000000 0.000000 0.000000 0.000000 98.581177 27.717426 39.951336 -90.827942 67.565918 0.000000 0.000000 0.000000 0.000000 0.000000 0.000000 0.000000 
4.817107 15.564921 -2.375835 -4.960369 -25.233309 3.832239 -7.069387 22.983646 -30.365337 -7.876366 16.354284 22.484215 -0.933847 6.048824 -14.250776 0.000000 0.000000 0.000000 -4.187057 -13.917259 6.242465 30.512243 -16.782276 27.364349 0.877701 -0.962356 -10.206761 0.000000 0.000000 0.000000 0.474631 1.882080 -3.558559 -1.823443 -0.782068 -9.759336 0.000000 0.000000 0.000000 0.000000 0.000000 0.000000 -39.181808 -34.465988 6.847019 72.069557 -64.382324 0.000000 0.000000 0.000000 0.000000 0.000000 0.000000 0.000000 98.543564 27.808720 39.957550 -91.091125 67.358803 -0.000000 0.000000 0.000000 0.000000 0.000000 0.000000 0.000000 
4.786918 15.561857 -2.387158 -4.907456 -24.911741 3.856510 -7.041628 22.827545 -30.443316 -7.986549 16.271704 22.487631 -0.919163 5.982550 -14.143686 0.000000 0.000000 0.000000 -4.148379 -14.002224 6.321690 30.631662 -16.900496 27.306477 0.946583 -1.010006 -10.494669 0.000000 0.000000 0.000000 0.474383 1.878905 -3.560125 -1.825081 -0.774635 -9.743598 0.000000 0.000000 0.000000 0.000000 0.000000 0.000000 -39.390678 -34.511219 6.849670 72.048286 -64.466629 -0.000000 0.000000 0.000000 0.000000 0.000000 0.000000 0.000000 98.502586 27.901863 39.964180 -91.348381 67.151344 -0.000000 0.000000 0.000000 0.000000 0.000000 0.000000 0.000000 
4.756367 15.558990 -2.397638 -4.866138 -24.549143 3.883723 -7.029353 22.629314 -30.532448 -8.064186 16.162582 22.516323 -0.906801 5.884911 -14.037759 0.000000 0.000000 0.000000 -4.125682 -14.135925 6.475800 30.807156 -17.008619 27.121601 1.024210 -1.105492 -10.759035 0.000000 0.000000 0.000000 0.473800 1.876814 -3.561399 -1.824770 -0.762722 -9.733228 0.000000 0.000000 0.000000 0.000000 0.000000 0.000000 -39.644180 -34.513596 6.820451 72.114105 -64.647446 -0.000000 0.000000 0.000000 0.000000 0.000000 0.000000 0.000000 98.453041 28.028358 39.992912 -91.616623 66.893295 -0.000000 0.000000 0.000000 0.000000 0.000000 0.000000 0.000000 
4.725811 15.556126 -2.408110 -4.825040 -24.186731 3.911492 -7.016736 22.429316 -30.623480 -8.142433 16.053911 22.545649 -0.894457 5.788113 -13.929870 0.000000 0.000000 0.000000 -4.101264 -14.268668 6.629487 30.983953 -17.115000 26.934532 1.103118 -1.201619 -11.021122 0.000000 0.000000 0.000000 0.473247 1.874684 -3.562914 -1.824079 -0.751039 -9.721385 0.000000 0.000000 0.000000 0.000000 0.000000 0.000000 -39.892101 -34.512161 6.789830 72.175728 -64.828613 0.000000 0.000000 0.000000 0.000000 0.000000 0.000000 0.000000 98.398735 28.158148 40.022224 -91.876854 66.634850 0.000000 0.000000 0.000000 0.000000 0.000000 0.000000 0.000000 
4.695186 15.553324 -2.417671 -4.793570 -23.777342 3.938570 -7.041754 22.245800 -30.718046 -8.154398 15.922647 22.569590 -0.881136 5.683997 -13.791177 0.000000 0.000000 0.000000 -4.088125 -14.444877 6.847622 31.199415 -17.218441 26.649763 1.193419 -1.341479 -11.276785 0.000000 0.000000 0.000000 0.472543 1.873704 -3.563844 -1.822496 -0.735376 -9.712820 0.000000 0.000000 0.000000 0.000000 0.000000 0.000000 -40.199738 -34.449982 6.705781 72.309723 -65.156013 0.000000 0.000000 0.000000 0.000000 0.000000 0.000000 0.000000 98.336922 28.316231 40.061302 -92.098808 66.366585 0.000000 0.000000 0.000000 0.000000 0.000000 0.000000 0.000000 
4.664560 15.550523 -2.427211 -4.762252 -23.367880 3.965985 -7.067296 22.061785 -30.813852 -8.166091 15.791520 22.593344 -0.867799 5.580805 -13.649995 0.000000 0.000000 0.000000 -4.072637 -14.620016 7.065794 31.416075 -17.319572 26.362158 1.285285 -1.481981 -11.530579 0.000000 0.000000 0.000000 0.471856 1.872561 -3.565092 -1.820180 -0.720097 -9.702277 0.000000 0.000000 0.000000 0.000000 0.000000 0.000000 -40.498779 -34.381222 6.618234 72.436882 -65.485336 0.000000 0.000000 0.000000 0.000000 0.000000 0.000000 0.000000 98.268578 28.479151 40.101112 -92.311256 66.098427 -0.000000 0.000000 0.000000 0.000000 0.000000 0.000000 0.000000 
4.634356 15.547652 -2.435450 -4.730384 -22.914324 3.990155 -7.142765 21.928444 -30.907917 -8.110971 15.648689 22.594334 -0.853282 5.487399 -13.471421 0.000000 0.000000 0.000000 -4.053828 -14.796399 7.318411 31.637373 -17.403591 26.048603 1.386293 -1.606976 -11.835071 0.000000 0.000000 0.000000 0.471278 1.874301 -3.566259 -1.826002 -0.699501 -9.687269 0.000000 0.000000 0.000000 0.000000 0.000000 0.000000 -40.863789 -34.241978 6.459835 72.613060 -65.957397 0.000000 0.000000 0.000000 0.000000 0.000000 0.000000 0.000000 98.192688 28.672956 40.142071 -92.448936 65.843452 0.000000 0.000000 0.000000 0.000000 0.000000 0.000000 0.000000 
4.604167 15.544780 -2.443646 -4.698308 -22.460527 4.014283 -7.219535 21.796175 -31.002253 -8.055448 15.506189 22.593704 -0.838751 5.395627 -13.289844 0.000000 0.000000 0.000000 -4.032031 -14.970525 7.570724 31.858959 -17.484600 25.733505 1.488958 -1.731021 -12.139366 0.000000 0.000000 0.000000 0.470718 1.875736 -3.567865 -1.831081 -0.679515 -9.669361 0.000000 0.000000 0.000000 0.000000 0.000000 0.000000 -41.216461 -34.092979 6.294610 72.776611 -66.432755 0.000000 0.000000 0.000000 0.000000 0.000000 0.000000 0.000000 98.108124 28.873425 40.183750 -92.575272 65.589401 0.000000 0.000000 0.000000 0.000000 0.000000 0.000000 0.000000 
4.574755 15.541664 -2.450464 -4.659977 -21.971764 4.033286 -7.332339 21.688713 -31.100147 -7.965300 15.363342 22.587896 -0.826304 5.308359 -13.099223 0.000000 0.000000 0.000000 -3.988232 -15.104838 7.833415 32.055290 -17.530645 25.452635 1.597206 -1.785015 -12.537915 0.000000 0.000000 0.000000 0.470410 1.882528 -3.570042 -1.855038 -0.651573 -9.637468 0.000000 0.000000 0.000000 0.000000 0.000000 0.000000 -41.638252 -33.887253 6.070643 72.985153 -66.990852 -0.000000 0.000000 0.000000 0.000000 0.000000 0.000000 0.000000 98.021729 29.111511 40.218739 -92.617508 65.354568 -0.000000 0.000000 0.000000 0.000000 0.000000 0.000000 0.000000 
4.545377 15.538537 -2.457219 -4.621037 -21.482920 4.051727 -7.446140 21.581970 -31.197790 -7.875851 15.221339 22.580421 -0.813933 5.222740 -12.906711 0.000000 0.000000 0.000000 -3.940966 -15.235140 8.095001 32.250393 -17.573223 25.172752 1.707027 -1.835925 -12.938207 0.000000 0.000000 0.000000 0.470130 1.888907 -3.572796 -1.878515 -0.624421 -9.601387 0.000000 0.000000 0.000000 0.000000 0.000000 0.000000 -42.044205 -33.669514 5.837584 73.175026 -67.551086 0.000000 0.000000 0.000000 0.000000 0.000000 0.000000 0.000000 97.924400 29.358400 40.254211 -92.646080 65.121071 0.000000 0.000000 0.000000 0.000000 0.000000 0.000000 0.000000 
4.516542 15.534935 -2.463170 -4.581652 -20.968489 4.067556 -7.568288 21.442329 -31.316593 -7.781306 15.084555 22.606920 -0.807042 5.122021 -12.744840 0.000000 0.000000 0.000000 -3.862173 -15.326832 8.366519 32.420910 -17.583321 24.924276 1.824803 -1.823591 -13.432968 0.000000 0.000000 0.000000 0.469808 1.902615 -3.576229 -1.922930 -0.585651 -9.551550 0.000000 0.000000 0.000000 0.000000 0.000000 0.000000 -42.510593 -33.403683 5.561242 73.434731 -68.161652 0.000000 0.000000 0.000000 0.000000 0.000000 0.000000 0.000000 97.829086 29.648605 40.285515 -92.615273 64.895317 0.000000 0.000000 0.000000 0.000000 0.000000 0.000000 0.000000 
4.487737 15.531307 -2.469074 -4.541675 -20.454391 4.082503 -7.690380 21.300842 -31.435699 -7.688349 14.948807 22.633974 -0.800325 5.021560 -12.583716 0.000000 0.000000 0.000000 -3.779901 -15.414173 8.636825 32.589794 -17.590437 24.677242 1.944354 -1.808395 -13.929876 0.000000 0.000000 0.000000 0.469507 1.915766 -3.580376 -1.966806 -0.547756 -9.496590 0.000000 0.000000 0.000000 0.000000 0.000000 0.000000 -42.956848 -33.123432 5.274350 73.671852 -68.772835 0.000000 0.000000 0.000000 0.000000 0.000000 0.000000 0.000000 97.720047 29.950241 40.317245 -92.569031 64.670540 -0.000000 0.000000 0.000000 0.000000 0.000000 0.000000 0.000000 
4.458851 15.527076 -2.475104 -4.513051 -19.916304 4.102259 -7.795866 21.084196 -31.600481 -7.606980 14.824394 22.727674 -0.800123 4.896401 -12.473933 0.000000 0.000000 0.000000 -3.665207 -15.503056 8.930414 32.753574 -17.589369 24.414400 2.081432 -1.789098 -14.491911 0.000000 0.000000 0.000000 0.469017 1.935129 -3.585164 -2.018571 -0.495547 -9.439806 0.000000 0.000000 0.000000 0.000000 0.000000 0.000000 -43.448872 -32.784374 4.934745 74.003899 -69.480438 0.000000 0.000000 0.000000 0.000000 0.000000 0.000000 0.000000 97.591843 30.307245 40.355000 -92.504135 64.439720 0.000000 0.000000 0.000000 0.000000 0.000000 0.000000 0.000000 
4.429958 15.522803 -2.481144 -4.484348 -19.378630 4.121274 -7.900154 20.863241 -31.767317 -7.527407 14.701170 22.825056 -0.800071 4.769981 -12.366911 0.000000 0.000000 0.000000 -3.547005 -15.589383 9.223697 32.916664 -17.586407 24.150227 2.221288 -1.769803 -15.054808 0.000000 0.000000 0.000000 0.468550 1.953483 -3.590834 -2.068750 -0.444445 -9.377744 0.000000 0.000000 0.000000 0.000000 0.000000 0.000000 -43.914040 -32.426559 4.580998 74.307899 -70.191551 0.000000 0.000000 0.000000 0.000000 0.000000 0.000000 0.000000 97.444710 30.679733 40.393242 -92.423782 64.209564 0.000000 0.000000 0.000000 0.000000 0.000000 0.000000 0.000000 
4.400309 15.517949 -2.488713 -4.471485 -18.805061 4.150620 -7.970979 20.547680 -32.006248 -7.483706 14.605452 23.011463 -0.805515 4.636573 -12.291642 0.000000 0.000000 0.000000 -3.406553 -15.724523 9.552289 33.099663 -17.603851 23.814861 2.388703 -1.813795 -15.641844 0.000000 0.000000 0.000000 0.468404 1.971999 -3.597549 -2.109678 -0.380987 -9.324862 0.000000 0.000000 0.000000 0.000000 0.000000 0.000000 -44.421467 -32.007042 4.157304 74.678764 -71.057274 0.000000 0.000000 0.000000 0.000000 0.000000 0.000000 0.000000 97.228676 31.126860 40.439751 -92.347992 63.976528 0.000000 0.000000 0.000000 0.000000 0.000000 0.000000 0.000000 
4.370597 15.513047 -2.496408 -4.458819 -18.230965 4.179476 -8.039639 20.226711 -32.250252 -7.442895 14.511992 23.205002 -0.810992 4.502195 -12.217641 0.000000 0.000000 0.000000 -3.262735 -15.859887 9.881767 33.283817 -17.620235 23.473373 2.560470 -1.861368 -16.227468 0.000000 0.000000 0.000000 0.468347 1.988433 -3.605426 -2.147369 -0.319371 -9.266606 0.000000 0.000000 0.000000 0.000000 0.000000 0.000000 -44.893696 -31.563702 3.713501 75.005836 -71.932419 0.000000 0.000000 0.000000 0.000000 0.000000 0.000000 0.000000 96.985199 31.595289 40.485352 -92.258263 63.745705 0.000000 0.000000 0.000000 0.000000 0.000000 0.000000 0.000000 
4.339330 15.507811 -2.507846 -4.450156 -17.598995 4.217070 -8.072122 19.796089 -32.595455 -7.471028 14.470201 23.518227 -0.820327 4.404372 -12.108066 0.000000 0.000000 0.000000 -3.125200 -16.070868 10.253611 33.525608 -17.668829 23.007420 2.762216 -2.008075 -16.800743 0.000000 0.000000 0.000000 0.469169 1.995503 -3.615119 -2.176794 -0.253077 -9.218837 0.000000 0.000000 0.000000 0.000000 0.000000 0.000000 -45.410221 -31.070835 3.184464 75.272240 -72.982681 0.000000 0.000000 0.000000 0.000000 0.000000 0.000000 0.000000 96.624374 32.149902 40.519753 -92.151306 63.531624 0.000000 0.000000 0.000000 0.000000 0.000000 0.000000 0.000000 
